<svg xmlns="http://www.w3.org/2000/svg" width="95" height="28" viewBox="0 0 95 28" fill="black">
<path d="M21.1139 4.176L14.5229 7.556V6.576L20.1229 3.792V3.763L14.5229 0.98V0L21.1139 3.38V4.176Z" fill="black"/>
<path d="M14.5229 8.49108L21.1139 5.11108V6.09108L15.5139 8.87508V8.90408L21.1139 11.6881V12.6681L14.5229 9.28808V8.49108Z" fill="black"/>
<path d="M21.1139 14.397L14.5229 17.777V16.797L20.1229 14.013V13.984L14.5229 11.2V10.22L21.1139 13.6V14.397Z" fill="black"/>
<path d="M21.1139 24.6201L14.5229 28.0001V27.0201L20.1229 24.2361V24.2071L14.5229 21.4231V20.4431L21.1139 23.8231V24.6201Z" fill="black"/>
<path d="M14.5229 18.714L21.1139 15.334V16.314L15.5139 19.098V19.127L21.1139 21.911V22.891L14.5229 19.511V18.714Z" fill="black"/>
<path d="M7.20605 23.8241L13.7971 20.4441V21.4241L8.19705 24.2081V24.2371L13.7971 27.0211V28.0011L7.20605 24.6211V23.8241Z" fill="black"/>
<path d="M13.7971 19.51L7.20605 22.89V21.91L12.8061 19.126V19.097L7.20605 16.313V15.333L13.7971 18.713V19.51Z" fill="black"/>
<path d="M7.20605 13.6009L13.7971 10.2209V11.2009L8.19705 13.9849V14.0139L13.7971 16.7979V17.7779L7.20605 14.3979V13.6009Z" fill="black"/>
<path d="M7.20605 3.38L13.7971 0V0.98L8.19705 3.764V3.793L13.7971 6.577V7.557L7.20605 4.176V3.38Z" fill="black"/>
<path d="M13.7971 9.28711L7.20605 12.6671V11.6871L12.8061 8.90311V8.87411L7.20605 6.09011V5.11011L13.7971 8.49011V9.28711Z" fill="black"/>
<path d="M28.4318 19.51L21.8408 22.89V21.91L27.4408 19.126V19.097L21.8408 16.313V15.333L28.4318 18.713V19.51Z" fill="black"/>
<path d="M21.8408 13.6009L28.4318 10.2209V11.2009L22.8318 13.9849V14.0139L28.4318 16.7979V17.7779L21.8408 14.3979V13.6009Z" fill="black"/>
<path d="M28.4318 9.28711L21.8408 12.6671V11.6871L27.4408 8.90311V8.87411L21.8408 6.09011V5.11011L28.4318 8.49011V9.28711Z" fill="black"/>
<path d="M0 8.49108L6.591 5.11108V6.09108L0.991 8.87508V8.90408L6.591 11.6881V12.6681L0 9.28708V8.49108Z" fill="black"/>
<path d="M6.591 14.3969L0 17.7789V16.7989L5.6 14.0149V13.9859L0 11.2009V10.2209L6.591 13.6009V14.3969Z" fill="black"/>
<path d="M0 18.714L6.591 15.334V16.314L0.991 19.098V19.127L6.591 21.911V22.891L0 19.51V18.714Z" fill="black"/>
<path d="M76.9579 7.74304C75.9795 7.1999 74.877 6.91979 73.7579 6.93004C72.8424 6.92405 71.9362 7.11503 71.1009 7.49004C70.2881 7.85355 69.5528 8.36992 68.9349 9.01104C68.3109 9.66159 67.8116 10.4212 67.4619 11.252C66.7341 13.0131 66.7341 14.9909 67.4619 16.752C67.8096 17.584 68.3091 18.3439 68.9349 18.993C69.5528 19.6342 70.2881 20.1505 71.1009 20.514C71.9362 20.8891 72.8424 21.08 73.7579 21.074C74.877 21.0843 75.9795 20.8042 76.9579 20.261C77.9128 19.7343 78.7296 18.9894 79.3419 18.087L81.7129 19.821C80.8065 21.0286 79.6369 22.0139 78.2929 22.702C76.8895 23.4213 75.3319 23.7876 73.7549 23.769C72.4346 23.7777 71.1267 23.5138 69.9129 22.994C68.7453 22.5 67.6819 21.7891 66.7789 20.899C65.8839 20.0107 65.1673 18.9591 64.6679 17.801C64.156 16.5996 63.8921 15.307 63.8921 14.001C63.8921 12.695 64.156 11.4025 64.6679 10.201C65.1677 9.04216 65.885 7.98983 66.7809 7.10104C67.6849 6.21221 68.7481 5.5015 69.9149 5.00604C71.129 4.4871 72.4367 4.2233 73.7569 4.23104C75.3337 4.21393 76.891 4.5801 78.2949 5.29804M78.2949 5.29804C79.6388 5.9863 80.8084 6.97154 81.7149 8.17904L79.3439 9.91304C78.7316 9.01068 77.9148 8.26577 76.9599 7.73904" fill="black"/>
<path d="M37.5189 4.19409H40.3809V18.5231C40.3854 19.2298 40.2413 19.9296 39.9579 20.5771C39.6855 21.2045 39.297 21.7749 38.8129 22.2581C38.3272 22.7406 37.7535 23.1256 37.1229 23.3921C36.4631 23.6711 35.7532 23.812 35.0369 23.8061C34.2594 23.8151 33.4887 23.6604 32.7749 23.3521C32.0935 23.0557 31.4882 22.6085 31.0049 22.0441L33.2399 20.2841C33.4619 20.5246 33.7354 20.712 34.0399 20.8321C34.3576 20.951 34.6947 21.01 35.0339 21.0061C35.3654 21.0082 35.6941 20.9447 36.0009 20.8191C36.2958 20.6983 36.5645 20.5214 36.7919 20.2981C37.0199 20.0738 37.2008 19.8063 37.3239 19.5111C37.4512 19.2068 37.5161 18.88 37.5149 18.5501L37.5189 4.19409Z" fill="black"/>
<path d="M51.6631 4.22121C52.9615 4.21137 54.2475 4.47545 55.4371 4.99621C56.5841 5.49598 57.6246 6.21125 58.5021 7.10321C59.3794 8.00204 60.0817 9.05633 60.5731 10.2122C61.0853 11.4131 61.3446 12.7067 61.3351 14.0122C61.3445 15.3151 61.0947 16.6068 60.6001 17.8122C59.6517 20.1473 57.8184 22.0126 55.5001 23.0012C54.2874 23.5245 52.9787 23.7885 51.6581 23.7762H44.6851V4.22121H51.6631ZM51.3361 21.2702C52.2743 21.281 53.2045 21.0966 54.0677 20.7288C54.9309 20.3609 55.7081 19.8175 56.3501 19.1332C56.9754 18.4625 57.4657 17.6775 57.7941 16.8212C58.4844 15.0042 58.4844 12.9972 57.7941 11.1802C57.4669 10.3236 56.9735 9.54023 56.3423 8.87518C55.711 8.21013 54.9544 7.67656 54.1161 7.30521C53.241 6.91736 52.2932 6.72098 51.3361 6.72921H47.6051V21.2702H51.3361Z" fill="black"/>
<path d="M87.748 19.991C87.7325 20.0167 87.7129 20.0396 87.6901 20.059C87.6673 20.0759 87.6393 20.084 87.6111 20.082C87.5671 20.0782 87.5256 20.0599 87.4931 20.03C87.4382 19.9885 87.3807 19.9504 87.321 19.916C87.2418 19.8695 87.1576 19.8319 87.0701 19.804C86.8421 19.7332 86.598 19.7332 86.3701 19.804C86.2778 19.8347 86.1924 19.8833 86.119 19.947C86.0535 20.0052 86.0019 20.0773 85.968 20.158C85.9328 20.2412 85.9151 20.3307 85.916 20.421C85.912 20.5281 85.9433 20.6335 86.0051 20.721C86.0689 20.8027 86.1485 20.8707 86.239 20.921C86.3439 20.9811 86.4549 21.0297 86.5701 21.066C86.6921 21.107 86.8191 21.149 86.9491 21.194C87.0791 21.239 87.2041 21.287 87.3281 21.343C87.4486 21.3952 87.5602 21.4657 87.6591 21.552C87.7577 21.6384 87.8374 21.7443 87.8931 21.863C87.9568 22.005 87.9872 22.1596 87.9821 22.315C87.9823 22.4964 87.9484 22.6762 87.882 22.845C87.8202 23.0073 87.724 23.1544 87.6001 23.276C87.4703 23.4024 87.3157 23.5005 87.1461 23.564C86.9509 23.6375 86.7436 23.6735 86.5351 23.67C86.2733 23.6736 86.0137 23.6222 85.7731 23.519C85.5514 23.4235 85.3514 23.284 85.1851 23.109L85.3531 22.831C85.3686 22.8088 85.3883 22.7898 85.4111 22.775C85.4339 22.76 85.4607 22.752 85.4881 22.752C85.5426 22.7579 85.5937 22.7818 85.6331 22.82C85.6969 22.8733 85.7637 22.9231 85.8331 22.969C85.9255 23.029 86.024 23.079 86.127 23.118C86.2626 23.1668 86.406 23.1899 86.55 23.186C86.6761 23.1884 86.8017 23.1687 86.9211 23.128C87.023 23.0937 87.1166 23.0386 87.196 22.966C87.2714 22.8971 87.3302 22.8119 87.3681 22.717C87.4088 22.615 87.4292 22.5059 87.4281 22.396C87.433 22.2823 87.4019 22.17 87.3391 22.075C87.2771 21.99 87.1981 21.9188 87.1071 21.866C87.0029 21.8066 86.8926 21.7587 86.778 21.723L86.399 21.603C86.2751 21.5644 86.1533 21.5193 86.0341 21.468C85.914 21.4155 85.8029 21.3443 85.705 21.257C85.6058 21.1669 85.5267 21.0569 85.4731 20.934C85.4088 20.7821 85.3785 20.6179 85.3841 20.453C85.3845 20.3003 85.4154 20.1491 85.4748 20.0083C85.5342 19.8675 85.6209 19.74 85.7301 19.633C85.8497 19.5179 85.9911 19.4278 86.1461 19.368C86.3279 19.2987 86.5214 19.2647 86.7161 19.268C86.9409 19.265 87.1643 19.3036 87.3751 19.382C87.5692 19.4557 87.7462 19.5683 87.8951 19.713L87.7541 19.991H87.748Z" fill="black"/>
<path d="M88.4713 23.297C88.4703 23.2465 88.4801 23.1963 88.5003 23.15C88.5191 23.1056 88.5459 23.0649 88.5793 23.03C88.6123 22.9948 88.6525 22.9671 88.6972 22.949C88.7436 22.9289 88.7937 22.919 88.8442 22.92C88.8947 22.92 88.9446 22.9299 88.9912 22.949C89.0358 22.9686 89.0764 22.9961 89.1112 23.03C89.1453 23.0647 89.1728 23.1054 89.1922 23.15C89.2123 23.1963 89.2223 23.2465 89.2213 23.297C89.2212 23.3481 89.2113 23.3986 89.1922 23.446C89.1741 23.4907 89.1465 23.531 89.1112 23.564C89.076 23.5975 89.0355 23.6248 88.9912 23.645C88.8971 23.6837 88.7914 23.6837 88.6972 23.645C88.6525 23.6268 88.6123 23.5992 88.5793 23.564C88.5462 23.5296 88.5195 23.4896 88.5003 23.446C88.4807 23.3988 88.4709 23.3481 88.4713 23.297Z" fill="black"/>
<path d="M93.5493 23.6261H93.0983C93.053 23.6284 93.0083 23.6146 92.9723 23.5871C92.9405 23.5599 92.9155 23.5257 92.8993 23.4871L92.4993 22.4471H90.5673L90.1673 23.4871C90.1519 23.5261 90.1268 23.5606 90.0943 23.5871C90.0581 23.6147 90.0137 23.6292 89.9683 23.6281H89.5103L91.2332 19.3181H91.8253L93.5493 23.6261ZM90.7263 22.0261H92.3353L91.6583 20.2741C91.6066 20.1418 91.5638 20.0062 91.5302 19.8681C91.5072 19.9511 91.4872 20.0251 91.4662 20.0961C91.4452 20.1671 91.4253 20.2261 91.4043 20.2781L90.7273 22.0281L90.7263 22.0261Z" fill="black"/>
<path d="M93.835 23.297C93.834 23.2465 93.8439 23.1963 93.864 23.15C93.8829 23.1055 93.9097 23.0649 93.943 23.03C93.9761 22.9948 94.0163 22.9671 94.061 22.949C94.1074 22.9289 94.1575 22.919 94.208 22.92C94.2584 22.92 94.3084 22.9299 94.355 22.949C94.3995 22.9686 94.4402 22.996 94.475 23.03C94.5091 23.0647 94.5366 23.1054 94.556 23.15C94.5761 23.1963 94.586 23.2465 94.585 23.297C94.585 23.348 94.5751 23.3986 94.556 23.446C94.5379 23.4907 94.5102 23.531 94.475 23.564C94.4398 23.5975 94.3992 23.6248 94.355 23.645C94.2608 23.6836 94.1552 23.6836 94.061 23.645C94.0163 23.6268 93.9761 23.5992 93.943 23.564C93.91 23.5296 93.8833 23.4896 93.864 23.446C93.8445 23.3988 93.8347 23.3481 93.835 23.297Z" fill="black"/>
</svg>